<?xml version="1.0" encoding="UTF-8" ?>
<!DOCTYPE svg PUBLIC "-//W3C//DTD SVG 1.1//EN" "http://www.w3.org/Graphics/SVG/1.1/DTD/svg11.dtd">
<svg width="894pt" height="1050pt" viewBox="0 0 894 1050" version="1.1" xmlns="http://www.w3.org/2000/svg">
<g id="#2f3b5eff">
<path fill="#2f3b5e" opacity="1.00" d=" M 301.72 117.35 C 307.72 116.02 313.90 116.62 320.00 116.48 C 326.10 116.65 332.41 115.79 338.29 117.89 C 346.29 120.48 354.75 124.31 358.99 132.03 C 363.45 139.99 361.82 149.65 359.06 157.90 C 403.79 142.38 451.84 136.30 498.97 141.03 C 517.03 142.75 534.92 146.07 552.48 150.61 C 555.32 151.32 558.06 152.37 560.70 153.65 C 576.46 141.28 593.76 130.67 612.52 123.53 C 622.64 119.90 633.10 116.10 644.00 116.49 C 650.44 116.66 657.07 115.82 663.29 117.91 C 677.42 122.19 690.25 131.08 698.92 143.08 C 705.53 152.37 709.48 163.40 711.14 174.64 C 712.96 190.86 710.99 207.40 705.79 222.86 C 700.30 239.97 691.00 255.59 679.94 269.66 C 691.18 282.21 700.50 296.35 709.26 310.70 C 732.06 348.93 748.45 390.73 760.12 433.63 C 775.24 490.64 783.73 549.33 786.92 608.17 C 788.04 616.74 787.19 625.42 788.10 634.00 C 788.45 641.32 788.43 648.67 788.15 656.00 C 787.19 664.85 788.07 673.81 786.78 682.65 C 785.29 711.80 781.28 740.86 774.54 769.28 C 774.02 771.08 774.20 773.03 775.67 774.36 C 782.94 782.65 787.20 793.20 789.21 803.95 C 789.59 809.83 789.78 815.81 788.94 821.67 C 786.21 834.41 780.61 846.96 771.01 856.01 C 762.15 864.70 749.76 869.61 737.38 869.56 C 728.56 887.18 719.74 905.00 707.65 920.66 C 696.20 935.63 681.42 948.34 664.08 955.95 C 652.66 960.61 640.42 963.92 627.99 963.51 C 617.56 963.26 606.99 964.31 596.70 962.17 C 572.82 957.22 550.78 946.07 527.01 940.71 C 521.27 939.19 515.20 939.38 509.38 940.22 C 480.87 943.77 453.68 953.67 425.47 958.79 C 407.92 962.01 389.77 964.07 372.07 960.69 C 353.70 957.31 337.37 946.74 324.50 933.49 C 301.16 909.27 288.89 876.11 285.54 843.03 C 284.08 830.08 284.52 817.04 284.12 804.05 C 283.49 802.42 282.04 801.34 280.87 800.13 C 268.99 789.19 260.04 775.45 253.00 761.01 C 242.82 739.66 237.29 715.64 240.01 691.96 C 241.47 679.10 245.88 666.61 252.60 655.57 C 253.99 652.95 256.91 651.94 259.26 650.40 C 242.68 647.73 226.41 641.96 212.39 632.60 C 200.88 624.98 190.98 614.50 185.41 601.76 C 184.52 599.44 182.82 597.61 180.86 596.15 C 167.77 585.91 159.88 570.19 156.96 554.04 C 154.46 542.18 154.02 530.03 154.22 517.95 C 154.67 514.86 152.36 512.55 151.55 509.79 C 140.09 447.74 149.21 382.54 175.25 325.21 C 181.19 311.78 188.58 299.06 196.07 286.47 C 192.98 287.98 190.27 290.29 186.94 291.30 C 182.75 291.23 178.60 288.09 177.65 283.96 C 177.11 281.14 179.32 278.91 181.33 277.33 C 188.39 271.91 197.16 269.06 205.97 268.27 C 206.19 263.17 205.43 258.07 206.20 252.98 C 206.59 233.15 210.27 213.41 216.63 194.63 C 225.21 169.52 240.30 145.43 263.31 131.29 C 274.89 123.80 288.37 120.17 301.72 117.35 M 607.55 128.46 C 590.84 135.78 575.82 146.37 561.35 157.36 C 552.37 164.64 543.05 171.53 534.39 179.19 C 529.83 182.09 526.22 186.70 520.77 187.95 C 521.53 186.69 522.29 185.40 523.40 184.42 C 534.64 175.02 546.37 166.21 557.53 156.73 C 535.19 150.68 512.36 146.26 489.25 144.65 L 488.64 145.22 C 482.82 144.07 476.88 144.57 471.00 144.45 C 455.92 144.54 440.70 143.96 425.81 146.79 C 421.10 147.71 416.25 147.68 411.57 148.75 C 401.92 151.28 391.96 152.49 382.41 155.41 C 373.38 158.12 364.23 160.62 355.63 164.54 C 327.20 174.44 301.05 190.05 277.02 208.03 C 254.54 225.67 234.25 246.14 217.05 268.96 C 223.04 270.39 229.62 269.85 235.16 272.77 C 239.17 276.55 235.72 285.15 230.00 284.71 C 222.96 284.71 216.08 282.48 209.02 282.80 C 207.13 282.93 206.17 284.83 205.13 286.15 C 201.90 291.10 198.74 296.12 196.31 301.51 C 194.33 306.22 190.41 309.85 188.91 314.80 C 192.19 312.20 194.86 308.71 198.72 306.93 C 202.54 305.90 207.37 305.52 210.40 308.57 C 216.68 314.19 218.09 323.09 219.05 331.03 C 217.99 327.45 216.94 323.86 215.58 320.38 C 213.53 315.46 208.62 311.17 202.98 312.08 C 198.20 311.83 194.60 315.36 191.60 318.59 C 183.53 327.49 178.94 338.87 175.18 350.11 C 172.14 360.21 168.84 370.60 169.74 381.30 C 169.23 381.30 168.20 381.32 167.68 381.33 C 163.30 400.18 161.29 419.67 162.77 439.00 C 163.81 445.73 164.54 453.55 170.11 458.25 C 172.95 459.50 176.30 458.47 178.51 456.42 C 186.97 449.09 191.52 438.64 196.56 428.91 C 196.46 428.41 196.27 427.42 196.17 426.93 C 209.14 412.05 213.86 392.19 217.29 373.26 C 219.99 359.62 219.26 345.68 219.22 331.87 C 221.17 338.07 220.51 344.62 220.59 351.01 C 220.66 358.30 219.67 365.54 218.50 372.72 C 215.28 391.11 210.28 409.18 203.67 426.64 C 200.09 436.89 194.20 446.16 188.01 455.01 C 184.69 460.01 178.44 462.35 175.95 467.97 C 167.42 484.63 161.79 503.15 162.15 522.00 C 162.28 527.21 161.94 532.43 162.30 537.64 C 162.11 539.43 161.91 541.22 161.97 543.04 C 163.24 560.34 167.39 579.10 180.90 591.13 C 192.72 600.73 207.01 607.41 222.06 609.90 C 231.57 611.22 242.10 611.01 250.22 605.23 C 254.23 602.84 256.26 598.50 259.38 595.24 C 261.34 594.85 263.23 595.77 265.11 596.21 C 264.48 600.95 260.92 604.54 257.20 607.19 C 250.66 611.74 242.54 613.23 234.73 613.58 C 220.99 613.92 207.84 609.44 195.09 604.89 C 200.70 616.61 210.51 625.78 221.36 632.66 C 233.73 640.32 247.61 645.93 262.09 647.86 C 261.77 648.46 261.14 649.67 260.83 650.27 L 260.16 650.15 C 261.32 655.54 257.17 659.68 255.23 664.29 C 251.06 673.41 248.61 683.30 247.54 693.25 C 247.19 700.07 247.18 706.92 247.54 713.74 C 250.83 744.84 265.00 774.75 287.20 796.80 C 298.64 808.12 312.65 817.35 328.45 821.06 C 326.53 821.38 324.66 821.95 322.79 822.46 C 313.94 819.82 305.12 816.71 297.29 811.72 C 293.07 809.19 289.44 805.74 284.92 803.72 C 284.65 806.70 284.61 809.69 284.68 812.69 C 286.87 810.67 289.55 809.11 292.58 810.30 C 292.91 816.86 292.47 823.42 292.66 829.99 C 293.47 849.98 297.11 869.93 304.32 888.63 C 309.65 901.79 316.31 914.59 325.54 925.47 C 336.25 938.28 350.28 948.52 366.20 953.80 C 380.79 958.65 396.53 958.65 411.62 956.63 C 427.14 954.52 442.25 950.27 457.41 946.45 C 471.41 942.71 485.57 939.61 499.80 936.87 C 499.35 935.74 498.91 934.63 498.48 933.53 C 491.18 932.37 483.77 933.04 476.42 932.48 C 457.20 931.25 437.91 928.99 419.35 923.64 C 404.93 919.30 390.59 913.03 379.81 902.20 C 376.22 898.38 371.87 894.59 370.93 889.16 C 372.47 888.85 374.01 888.23 375.60 888.40 C 379.18 890.79 381.18 894.81 384.19 897.82 C 394.00 907.99 407.00 914.47 420.36 918.68 C 437.73 924.05 455.94 925.79 474.00 927.07 C 493.99 927.86 514.00 928.40 534.00 927.95 C 538.74 927.94 543.67 927.30 548.19 929.14 C 547.71 932.36 544.54 932.89 541.85 933.35 C 537.67 931.50 532.93 931.90 528.62 933.04 C 529.08 933.43 529.99 934.19 530.44 934.58 C 534.46 935.16 538.64 934.94 542.50 936.43 C 542.96 938.20 545.41 938.35 546.85 939.12 C 565.50 944.95 583.68 952.57 603.00 956.01 C 617.26 958.76 632.20 958.40 646.14 954.16 C 665.99 948.64 683.73 936.67 697.10 921.08 C 709.60 906.49 718.88 889.50 727.40 872.38 C 729.02 869.38 728.75 865.85 729.82 862.69 C 754.42 820.30 768.37 772.38 775.16 724.03 C 780.79 685.29 781.28 646.00 779.71 606.94 C 777.54 566.10 772.32 525.43 764.79 485.24 C 757.51 447.49 747.65 410.15 733.71 374.29 C 719.54 338.06 701.15 303.19 676.79 272.75 C 670.54 276.88 666.23 283.49 659.34 286.77 C 658.90 286.38 658.02 285.60 657.58 285.21 C 664.73 280.62 669.92 273.80 675.51 267.53 C 686.16 253.87 694.41 238.34 699.80 221.87 C 706.06 203.69 707.61 183.44 702.16 164.86 C 697.52 149.23 686.02 136.54 672.50 127.87 C 664.67 123.58 656.04 120.17 646.98 120.18 C 633.30 118.63 619.92 123.09 607.55 128.46 M 292.01 126.95 C 272.89 132.01 254.88 143.04 243.27 159.28 C 230.29 176.05 222.41 196.29 217.88 216.86 C 216.98 219.84 216.38 222.91 215.94 225.99 C 214.08 238.27 212.25 250.70 213.01 263.15 C 216.10 260.49 218.54 257.23 221.08 254.07 C 233.64 239.04 247.74 225.31 262.91 212.93 C 277.00 201.29 292.44 191.41 308.19 182.19 C 319.52 175.89 331.04 169.84 343.15 165.17 C 345.36 164.23 347.92 163.37 349.06 161.05 C 351.44 156.87 353.46 152.44 354.84 147.82 C 356.45 142.22 356.25 135.45 351.93 131.07 C 345.21 124.27 335.13 122.77 325.98 122.64 C 314.57 122.54 302.92 123.44 292.01 126.95 M 154.64 453.00 C 154.41 467.40 155.77 481.75 157.18 496.06 C 157.22 497.60 157.87 499.00 158.68 500.28 C 161.10 494.02 162.56 487.43 165.26 481.27 C 167.28 475.74 170.55 470.82 172.90 465.45 C 168.73 463.91 164.17 462.09 162.24 457.73 C 157.88 451.04 158.65 442.74 155.99 435.48 C 154.18 441.14 154.80 447.15 154.64 453.00 M 771.41 779.87 C 769.10 786.00 767.75 792.44 765.63 798.63 C 760.61 814.56 754.43 830.12 747.15 845.15 C 744.60 850.83 741.00 856.00 739.01 861.94 C 744.49 861.81 749.84 860.25 754.72 857.77 C 778.73 845.77 789.13 813.37 777.78 789.29 C 776.11 785.88 774.51 782.24 771.41 779.87 Z" />
<path fill="#2f3b5e" opacity="1.00" d=" M 354.27 566.56 C 354.36 564.30 353.90 560.38 357.23 560.45 C 368.09 559.71 378.94 562.32 389.10 565.98 C 403.31 571.57 416.54 579.87 427.48 590.54 C 430.09 592.48 427.81 595.09 426.77 597.20 C 425.37 596.85 423.98 596.51 422.59 596.17 C 410.31 583.43 394.29 574.34 377.23 569.75 C 369.75 567.56 361.87 568.04 354.27 566.56 Z" />
<path fill="#2f3b5e" opacity="1.00" d=" M 563.61 628.56 C 564.77 627.59 565.97 626.07 567.68 626.40 C 569.19 626.92 570.46 627.96 571.82 628.81 C 567.60 634.83 562.00 639.67 556.53 644.51 C 532.28 664.97 502.32 677.61 471.57 684.53 C 455.63 688.23 439.36 690.42 423.05 691.59 C 407.34 691.57 391.52 692.52 375.93 690.05 C 343.82 685.93 311.51 674.84 287.15 652.86 C 286.29 651.87 285.48 650.83 284.68 649.81 C 287.02 649.91 289.42 649.84 291.72 650.41 C 294.93 652.39 297.05 655.69 300.09 657.91 C 316.47 670.11 335.69 678.17 355.59 682.54 C 394.99 691.60 436.35 688.37 475.22 678.27 C 508.22 669.67 540.23 653.85 563.61 628.56 Z" />
</g>
<g id="#5d82c7ff">
<path fill="#5d82c7" opacity="1.00" d=" M 607.55 128.46 C 619.92 123.09 633.30 118.63 646.98 120.18 C 656.04 120.17 664.67 123.58 672.50 127.87 C 672.55 128.72 672.61 129.58 672.67 130.43 C 660.86 130.26 648.95 131.15 637.58 134.55 C 619.93 139.80 603.05 147.58 587.60 157.61 C 576.61 164.99 565.38 172.02 554.33 179.33 C 549.74 181.98 545.00 185.59 539.44 185.34 C 536.14 185.21 535.35 181.68 534.39 179.19 C 543.05 171.53 552.37 164.64 561.35 157.36 C 575.82 146.37 590.84 135.78 607.55 128.46 Z" />
<path fill="#5d82c7" opacity="1.00" d=" M 243.27 159.28 C 254.88 143.04 272.89 132.01 292.01 126.95 C 292.53 127.09 293.56 127.38 294.07 127.52 C 289.10 132.11 283.34 135.75 278.61 140.61 C 263.83 154.27 250.97 169.86 239.02 186.02 C 233.19 194.39 227.45 202.95 223.47 212.39 C 222.15 215.56 220.43 218.56 218.32 221.28 C 218.14 219.81 218.00 218.33 217.88 216.86 C 222.41 196.29 230.29 176.05 243.27 159.28 Z" />
<path fill="#5d82c7" opacity="1.00" d=" M 425.81 146.79 C 440.70 143.96 455.92 144.54 471.00 144.45 C 476.88 144.57 482.82 144.07 488.64 145.22 C 486.02 147.90 482.82 149.93 479.35 151.33 C 471.15 154.73 463.52 159.34 456.04 164.08 C 448.06 169.31 440.00 174.51 432.89 180.91 C 427.15 186.15 420.84 190.89 416.23 197.23 C 410.06 205.45 403.14 214.22 402.43 224.88 C 403.12 236.59 409.65 246.75 415.44 256.58 C 418.86 262.34 423.60 267.15 427.41 272.64 C 425.18 272.73 422.93 272.81 420.72 272.47 C 406.00 269.68 391.02 267.74 376.00 268.21 C 365.60 268.47 355.00 267.28 344.80 269.95 C 336.51 272.11 328.20 274.22 319.80 275.92 C 307.57 278.38 297.05 285.39 286.38 291.44 C 283.22 293.25 279.68 294.17 276.34 295.56 C 273.57 296.68 272.64 299.84 271.21 302.20 C 264.93 313.70 259.80 325.79 255.12 338.02 C 251.92 346.53 248.02 354.82 245.80 363.67 C 244.00 370.33 243.47 377.32 240.85 383.75 C 232.99 401.83 226.58 420.55 221.78 439.67 C 218.62 452.31 215.28 464.97 214.03 477.97 C 212.83 487.27 213.15 496.65 213.14 505.99 C 213.02 516.54 213.63 527.10 214.67 537.60 C 218.05 555.26 230.17 570.47 245.55 579.44 C 251.49 583.30 258.38 585.19 264.71 588.26 C 258.50 589.65 252.10 589.04 245.83 589.85 C 238.66 590.66 231.50 592.00 224.26 591.67 C 218.26 591.37 212.19 591.93 206.25 590.85 C 199.06 589.60 192.44 586.33 186.12 582.82 C 181.74 578.23 175.67 575.25 172.55 569.54 C 170.07 565.18 168.12 560.54 166.16 555.93 C 163.66 550.15 163.17 543.80 162.30 537.64 C 161.94 532.43 162.28 527.21 162.15 522.00 C 161.79 503.15 167.42 484.63 175.95 467.97 C 178.44 462.35 184.69 460.01 188.01 455.01 C 194.20 446.16 200.09 436.89 203.67 426.64 C 210.28 409.18 215.28 391.11 218.50 372.72 C 219.67 365.54 220.66 358.30 220.59 351.01 C 220.51 344.62 221.17 338.07 219.22 331.87 L 219.05 331.03 C 218.09 323.09 216.68 314.19 210.40 308.57 C 207.37 305.52 202.54 305.90 198.72 306.93 C 194.86 308.71 192.19 312.20 188.91 314.80 C 190.41 309.85 194.33 306.22 196.31 301.51 C 198.74 296.12 201.90 291.10 205.13 286.15 C 206.17 284.83 207.13 282.93 209.02 282.80 C 216.08 282.48 222.96 284.71 230.00 284.71 C 235.72 285.15 239.17 276.55 235.16 272.77 C 229.62 269.85 223.04 270.39 217.05 268.96 C 234.25 246.14 254.54 225.67 277.02 208.03 C 301.05 190.05 327.20 174.44 355.63 164.54 C 364.23 160.62 373.38 158.12 382.41 155.41 C 391.96 152.49 401.92 151.28 411.57 148.75 C 416.25 147.68 421.10 147.71 425.81 146.79 Z" />
<path fill="#5d82c7" opacity="1.00" d=" M 579.54 450.41 C 577.89 446.39 578.74 440.70 583.16 438.92 C 587.59 438.43 591.72 441.45 593.92 445.12 C 600.98 455.77 602.62 468.79 603.81 481.22 C 605.15 500.45 603.89 519.98 598.76 538.62 C 594.92 552.41 590.25 566.23 582.32 578.26 C 579.10 582.92 575.05 586.97 570.60 590.46 C 569.43 587.14 572.01 584.14 572.92 581.08 C 581.28 558.88 588.87 535.65 588.33 511.64 C 586.22 491.15 586.37 470.09 579.54 450.41 Z" />
<path fill="#5d82c7" opacity="1.00" d=" M 419.82 463.35 C 425.29 462.75 430.84 463.21 436.09 464.91 C 440.17 466.36 444.33 468.61 446.57 472.47 C 447.59 473.83 446.35 475.42 445.23 476.23 C 442.59 478.04 439.35 478.66 436.27 479.28 C 415.36 482.68 394.04 483.33 373.39 488.29 C 358.45 491.31 344.23 496.88 329.90 501.93 C 325.73 503.25 321.03 505.21 316.76 503.21 C 314.60 502.34 313.10 500.53 311.86 498.64 C 313.88 498.11 315.99 497.83 317.88 496.88 C 321.22 495.02 323.96 492.27 327.20 490.23 C 336.78 483.75 347.72 479.83 358.25 475.20 C 377.84 467.56 398.91 464.38 419.82 463.35 Z" />
<path fill="#5d82c7" opacity="1.00" d=" M 662.40 676.39 C 663.91 673.98 666.34 672.42 668.77 671.05 C 671.39 673.97 674.14 677.14 674.73 681.18 C 675.49 686.41 675.07 691.89 672.98 696.79 C 672.79 697.38 672.42 698.55 672.23 699.14 C 668.40 717.17 656.25 731.80 644.30 745.24 C 642.26 747.15 639.63 748.24 637.01 749.11 C 638.36 743.73 642.42 739.73 644.99 734.97 C 652.54 722.03 660.18 708.28 661.21 693.03 C 661.90 687.52 658.56 681.23 662.40 676.39 Z" />
<path fill="#5d82c7" opacity="1.00" d=" M 532.79 753.49 C 535.05 745.24 542.67 739.46 550.83 737.77 C 552.81 737.74 554.77 738.15 556.73 738.46 C 558.49 745.45 551.40 749.73 549.87 755.93 C 548.22 760.94 549.71 766.35 548.36 771.38 C 546.45 775.03 542.15 776.34 538.37 777.03 C 537.65 775.28 537.25 773.36 536.08 771.85 C 531.83 766.80 531.51 759.69 532.79 753.49 Z" />
</g>
<g id="#4969a5ff">
<path fill="#4969a5" opacity="1.00" d=" M 292.01 126.95 C 302.92 123.44 314.57 122.54 325.98 122.64 C 335.13 122.77 345.21 124.27 351.93 131.07 C 356.25 135.45 356.45 142.22 354.84 147.82 C 353.46 152.44 351.44 156.87 349.06 161.05 C 347.92 163.37 345.36 164.23 343.15 165.17 C 331.04 169.84 319.52 175.89 308.19 182.19 C 292.44 191.41 277.00 201.29 262.91 212.93 C 247.74 225.31 233.64 239.04 221.08 254.07 C 218.54 257.23 216.10 260.49 213.01 263.15 C 212.25 250.70 214.08 238.27 215.94 225.99 C 216.38 222.91 216.98 219.84 217.88 216.86 C 218.00 218.33 218.14 219.81 218.32 221.28 C 220.43 218.56 222.15 215.56 223.47 212.39 C 227.45 202.95 233.19 194.39 239.02 186.02 C 250.97 169.86 263.83 154.27 278.61 140.61 C 283.34 135.75 289.10 132.11 294.07 127.52 C 293.56 127.38 292.53 127.09 292.01 126.95 Z" />
<path fill="#4969a5" opacity="1.00" d=" M 630.71 175.74 C 638.34 172.49 647.53 169.53 655.46 173.49 C 660.28 175.73 661.86 181.19 665.19 184.92 C 666.57 186.40 668.58 184.82 670.13 184.46 C 669.02 189.92 670.22 195.54 669.13 201.01 C 668.19 209.26 664.69 216.87 661.50 224.44 C 659.04 230.33 655.63 235.77 652.00 241.00 C 649.87 244.15 646.63 246.26 644.25 249.16 C 643.08 251.34 642.58 253.79 641.81 256.13 C 637.99 253.35 636.66 248.64 634.09 244.89 C 631.18 240.55 627.39 236.83 623.13 233.83 C 621.87 232.90 620.29 232.74 618.82 232.46 C 618.17 230.80 617.74 228.93 616.34 227.73 C 612.68 224.50 608.34 222.17 604.00 219.99 C 598.15 217.07 591.61 216.14 585.43 214.16 C 589.23 207.62 594.33 201.96 599.89 196.87 C 609.13 188.49 619.39 181.07 630.71 175.74 Z" />
<path fill="#4969a5" opacity="1.00" d=" M 659.34 286.77 C 666.23 283.49 670.54 276.88 676.79 272.75 C 701.15 303.19 719.54 338.06 733.71 374.29 C 747.65 410.15 757.51 447.49 764.79 485.24 C 772.32 525.43 777.54 566.10 779.71 606.94 C 781.28 646.00 780.79 685.29 775.16 724.03 C 768.37 772.38 754.42 820.30 729.82 862.69 C 728.75 865.85 729.02 869.38 727.40 872.38 C 718.88 889.50 709.60 906.49 697.10 921.08 C 683.73 936.67 665.99 948.64 646.14 954.16 C 632.20 958.40 617.26 958.76 603.00 956.01 C 583.68 952.57 565.50 944.95 546.85 939.12 C 545.41 938.35 542.96 938.20 542.50 936.43 C 542.26 935.39 542.04 934.37 541.85 933.35 C 544.54 932.89 547.71 932.36 548.19 929.14 C 543.67 927.30 538.74 927.94 534.00 927.95 C 514.00 928.40 493.99 927.86 474.00 927.07 C 455.94 925.79 437.73 924.05 420.36 918.68 C 407.00 914.47 394.00 907.99 384.19 897.82 C 381.18 894.81 379.18 890.79 375.60 888.40 C 374.01 888.23 372.47 888.85 370.93 889.16 C 371.87 894.59 376.22 898.38 379.81 902.20 C 390.59 913.03 404.93 919.30 419.35 923.64 C 437.91 928.99 457.20 931.25 476.42 932.48 C 483.77 933.04 491.18 932.37 498.48 933.53 C 498.91 934.63 499.35 935.74 499.80 936.87 C 485.57 939.61 471.41 942.71 457.41 946.45 C 442.25 950.27 427.14 954.52 411.62 956.63 C 396.53 958.65 380.79 958.65 366.20 953.80 C 350.28 948.52 336.25 938.28 325.54 925.47 C 316.31 914.59 309.65 901.79 304.32 888.63 C 297.11 869.93 293.47 849.98 292.66 829.99 C 292.47 823.42 292.91 816.86 292.58 810.30 C 289.55 809.11 286.87 810.67 284.68 812.69 C 284.61 809.69 284.65 806.70 284.92 803.72 C 289.44 805.74 293.07 809.19 297.29 811.72 C 305.12 816.71 313.94 819.82 322.79 822.46 C 332.48 825.63 342.73 824.86 352.75 824.73 C 354.95 826.07 357.32 828.21 360.09 827.09 C 372.51 823.35 385.86 817.04 391.67 804.68 C 396.06 796.03 394.82 785.93 391.85 777.06 C 396.68 777.44 401.78 778.15 405.66 781.34 C 411.55 786.07 417.54 790.77 422.72 796.29 C 427.46 801.24 429.05 808.28 433.71 813.29 C 445.71 825.61 458.43 837.26 469.81 850.18 C 481.90 863.21 495.62 874.66 510.21 884.79 C 520.78 891.49 531.30 898.43 542.93 903.20 C 559.85 910.88 577.55 916.68 595.45 921.59 C 605.78 924.28 616.23 927.00 626.97 927.15 C 633.32 927.19 639.68 927.42 646.03 927.13 C 650.59 926.93 654.77 924.91 658.71 922.78 C 666.37 918.65 673.68 913.89 680.59 908.62 C 686.80 903.84 693.97 900.14 698.92 893.92 C 706.87 884.20 713.38 873.39 719.51 862.47 C 724.21 854.23 727.17 845.19 730.19 836.25 C 735.05 821.38 736.25 805.69 738.37 790.29 C 740.60 773.57 742.30 756.79 744.04 740.02 C 745.97 723.94 746.77 707.76 747.44 691.58 C 748.07 669.39 747.02 647.19 746.97 624.99 C 745.93 602.61 742.82 580.39 738.59 558.41 C 734.94 540.81 730.07 523.49 724.72 506.34 C 719.26 488.55 713.27 470.91 706.36 453.63 C 700.19 436.68 692.23 420.49 684.95 404.01 C 677.36 388.11 668.88 372.61 658.97 358.03 C 654.59 351.82 649.58 346.10 644.61 340.37 C 638.25 333.08 630.54 327.03 624.70 319.29 C 623.90 317.89 622.24 316.23 623.39 314.58 C 624.92 312.97 626.88 311.87 628.74 310.68 C 635.88 306.37 642.26 300.97 648.70 295.69 C 652.34 292.81 654.50 288.61 657.58 285.21 C 658.02 285.60 658.90 286.38 659.34 286.77 Z" />
<path fill="#4969a5" opacity="1.00" d=" M 162.30 537.64 C 163.17 543.80 163.66 550.15 166.16 555.93 C 168.12 560.54 170.07 565.18 172.55 569.54 C 175.67 575.25 181.74 578.23 186.12 582.82 C 189.46 586.54 193.95 588.89 198.69 590.33 C 207.81 593.80 217.70 592.83 227.24 593.38 C 237.83 592.62 248.35 590.61 259.01 591.01 C 262.99 591.35 266.86 590.22 270.24 588.17 C 275.05 592.23 279.23 597.10 284.78 600.23 C 294.07 606.08 305.04 607.99 315.53 610.57 C 326.44 613.60 337.84 615.12 349.16 614.43 C 357.08 613.63 365.28 612.90 372.47 609.18 C 373.84 611.06 374.84 614.55 377.81 613.87 C 380.99 613.34 380.63 609.67 380.20 607.30 C 394.18 603.01 408.84 601.23 422.59 596.17 C 423.98 596.51 425.37 596.85 426.77 597.20 C 424.93 603.72 432.78 607.67 432.64 613.99 C 433.22 618.12 431.78 623.46 435.67 626.36 C 442.61 632.39 452.30 632.53 461.00 632.24 C 471.33 632.13 481.72 632.66 491.98 631.11 C 505.60 629.15 519.54 628.25 532.64 623.70 C 540.67 620.89 549.31 620.35 557.27 617.26 C 563.99 615.09 569.95 611.26 576.05 607.80 C 578.76 610.16 581.66 613.05 581.55 616.94 C 581.36 623.29 579.32 629.41 577.34 635.40 C 573.26 647.44 562.90 655.60 553.63 663.62 C 541.86 673.50 531.84 685.64 518.36 693.34 C 510.53 698.25 503.32 704.43 494.37 707.28 C 479.60 711.83 465.26 717.67 450.57 722.46 C 436.45 726.82 421.54 726.02 406.97 725.70 C 396.24 724.94 385.47 724.73 374.83 723.07 C 358.20 720.44 340.63 723.57 324.65 717.21 C 319.33 715.30 312.94 713.13 307.82 716.77 C 302.05 720.72 295.12 726.16 295.74 733.97 C 295.98 739.29 296.57 744.59 297.11 749.89 C 297.83 757.03 301.93 763.23 306.29 768.70 C 311.93 775.09 319.41 779.75 327.32 782.78 C 336.35 786.08 346.20 785.43 355.61 784.67 C 366.04 783.75 375.62 779.29 385.62 776.57 C 385.89 775.32 386.17 774.07 386.45 772.84 C 391.19 782.71 390.85 795.17 384.04 804.02 C 376.84 813.44 365.96 820.44 354.11 822.03 C 345.54 822.55 336.97 821.90 328.45 821.06 C 312.65 817.35 298.64 808.12 287.20 796.80 C 265.00 774.75 250.83 744.84 247.54 713.74 C 247.18 706.92 247.19 700.07 247.54 693.25 C 248.61 683.30 251.06 673.41 255.23 664.29 C 257.17 659.68 261.32 655.54 260.16 650.15 L 260.83 650.27 C 269.51 651.91 278.34 652.53 287.15 652.86 C 311.51 674.84 343.82 685.93 375.93 690.05 C 391.52 692.52 407.34 691.57 423.05 691.59 C 439.36 690.42 455.63 688.23 471.57 684.53 C 502.32 677.61 532.28 664.97 556.53 644.51 C 562.00 639.67 567.60 634.83 571.82 628.81 C 570.46 627.96 569.19 626.92 567.68 626.40 C 565.97 626.07 564.77 627.59 563.61 628.56 C 540.23 653.85 508.22 669.67 475.22 678.27 C 436.35 688.37 394.99 691.60 355.59 682.54 C 335.69 678.17 316.47 670.11 300.09 657.91 C 297.05 655.69 294.93 652.39 291.72 650.41 C 289.42 649.84 287.02 649.91 284.68 649.81 C 277.12 649.57 269.61 648.62 262.09 647.86 C 247.61 645.93 233.73 640.32 221.36 632.66 C 210.51 625.78 200.70 616.61 195.09 604.89 C 207.84 609.44 220.99 613.92 234.73 613.58 C 242.54 613.23 250.66 611.74 257.20 607.19 C 260.92 604.54 264.48 600.95 265.11 596.21 C 263.23 595.77 261.34 594.85 259.38 595.24 C 256.26 598.50 254.23 602.84 250.22 605.23 C 242.10 611.01 231.57 611.22 222.06 609.90 C 207.01 607.41 192.72 600.73 180.90 591.13 C 167.39 579.10 163.24 560.34 161.97 543.04 C 161.91 541.22 162.11 539.43 162.30 537.64 M 414.66 607.67 C 412.75 609.12 411.56 611.26 410.15 613.16 C 403.61 622.66 394.01 629.54 383.98 634.95 C 370.28 641.80 355.16 645.55 339.94 646.89 C 316.44 648.73 292.56 646.11 270.09 638.93 C 267.47 637.91 264.75 638.92 262.79 640.75 C 274.94 645.59 288.04 647.28 300.90 649.18 C 323.36 651.40 346.44 650.66 368.19 644.18 C 383.75 639.53 398.70 631.82 410.22 620.21 C 413.96 616.16 417.93 612.10 420.08 606.93 C 418.28 607.08 416.31 606.80 414.66 607.67 Z" />
<path fill="#4969a5" opacity="1.00" d=" M 644.30 745.24 C 656.25 731.80 668.40 717.17 672.23 699.14 C 671.54 705.70 672.55 712.32 671.76 718.89 C 669.05 744.15 658.07 768.29 641.61 787.57 C 631.96 798.77 620.58 808.97 606.90 814.94 C 594.76 819.88 581.13 821.81 568.26 818.83 C 556.91 816.51 544.92 811.66 538.59 801.37 C 534.47 795.05 533.82 787.13 535.47 779.90 C 536.65 784.24 541.56 784.55 545.09 785.98 C 553.36 789.23 562.36 787.69 571.00 788.09 C 579.66 788.47 587.71 784.87 596.01 783.02 C 603.11 781.40 609.15 777.16 614.87 772.88 C 620.34 768.72 625.95 764.68 630.77 759.77 C 635.34 754.97 640.47 750.69 644.30 745.24 Z" />
</g>
<g id="#5175b4ff">
<path fill="#5175b4" opacity="1.00" d=" M 672.50 127.87 C 686.02 136.54 697.52 149.23 702.16 164.86 C 707.61 183.44 706.06 203.69 699.80 221.87 C 694.41 238.34 686.16 253.87 675.51 267.53 C 669.92 273.80 664.73 280.62 657.58 285.21 C 654.50 288.61 652.34 292.81 648.70 295.69 C 642.26 300.97 635.88 306.37 628.74 310.68 C 626.88 311.87 624.92 312.97 623.39 314.58 C 622.24 316.23 623.90 317.89 624.70 319.29 C 630.54 327.03 638.25 333.08 644.61 340.37 C 649.58 346.10 654.59 351.82 658.97 358.03 C 668.88 372.61 677.36 388.11 684.95 404.01 C 692.23 420.49 700.19 436.68 706.36 453.63 C 713.27 470.91 719.26 488.55 724.72 506.34 C 730.07 523.49 734.94 540.81 738.59 558.41 C 742.82 580.39 745.93 602.61 746.97 624.99 C 747.02 647.19 748.07 669.39 747.44 691.58 C 746.77 707.76 745.97 723.94 744.04 740.02 C 742.30 756.79 740.60 773.57 738.37 790.29 C 736.25 805.69 735.05 821.38 730.19 836.25 C 727.17 845.19 724.21 854.23 719.51 862.47 C 713.38 873.39 706.87 884.20 698.92 893.92 C 693.97 900.14 686.80 903.84 680.59 908.62 C 673.68 913.89 666.37 918.65 658.71 922.78 C 654.77 924.91 650.59 926.93 646.03 927.13 C 639.68 927.42 633.32 927.19 626.97 927.15 C 616.23 927.00 605.78 924.28 595.45 921.59 C 577.55 916.68 559.85 910.88 542.93 903.20 C 531.30 898.43 520.78 891.49 510.21 884.79 C 495.62 874.66 481.90 863.21 469.81 850.18 C 458.43 837.26 445.71 825.61 433.71 813.29 C 429.05 808.28 427.46 801.24 422.72 796.29 C 417.54 790.77 411.55 786.07 405.66 781.34 C 401.78 778.15 396.68 777.44 391.85 777.06 C 384.54 761.35 371.26 747.29 354.03 742.97 C 348.14 741.30 342.00 742.09 336.00 742.39 C 334.49 740.17 333.11 737.50 330.37 736.65 C 323.12 733.94 314.26 734.11 307.93 738.94 C 304.81 741.42 301.76 744.44 300.53 748.33 C 299.61 750.87 302.92 751.84 304.47 753.07 C 307.31 749.75 309.84 745.98 313.61 743.62 C 318.99 740.54 325.98 740.96 331.14 744.33 C 327.34 747.03 322.94 749.34 320.73 753.67 C 322.43 754.77 324.14 755.87 325.86 756.95 C 332.03 751.31 339.12 745.49 347.97 745.54 C 364.97 745.33 379.63 757.99 386.45 772.84 C 386.17 774.07 385.89 775.32 385.62 776.57 C 375.62 779.29 366.04 783.75 355.61 784.67 C 346.20 785.43 336.35 786.08 327.32 782.78 C 319.41 779.75 311.93 775.09 306.29 768.70 C 301.93 763.23 297.83 757.03 297.11 749.89 C 296.57 744.59 295.98 739.29 295.74 733.97 C 295.12 726.16 302.05 720.72 307.82 716.77 C 312.94 713.13 319.33 715.30 324.65 717.21 C 340.63 723.57 358.20 720.44 374.83 723.07 C 385.47 724.73 396.24 724.94 406.97 725.70 C 421.54 726.02 436.45 726.82 450.57 722.46 C 465.26 717.67 479.60 711.83 494.37 707.28 C 503.32 704.43 510.53 698.25 518.36 693.34 C 531.84 685.64 541.86 673.50 553.63 663.62 C 562.90 655.60 573.26 647.44 577.34 635.40 C 579.32 629.41 581.36 623.29 581.55 616.94 C 581.66 613.05 578.76 610.16 576.05 607.80 C 569.95 611.26 563.99 615.09 557.27 617.26 C 549.31 620.35 540.67 620.89 532.64 623.70 C 519.54 628.25 505.60 629.15 491.98 631.11 C 481.72 632.66 471.33 632.13 461.00 632.24 C 452.30 632.53 442.61 632.39 435.67 626.36 C 431.78 623.46 433.22 618.12 432.64 613.99 C 432.78 607.67 424.93 603.72 426.77 597.20 C 427.81 595.09 430.09 592.48 427.48 590.54 C 416.54 579.87 403.31 571.57 389.10 565.98 C 378.94 562.32 368.09 559.71 357.23 560.45 C 353.90 560.38 354.36 564.30 354.27 566.56 C 361.87 568.04 369.75 567.56 377.23 569.75 C 394.29 574.34 410.31 583.43 422.59 596.17 C 408.84 601.23 394.18 603.01 380.20 607.30 C 376.10 600.78 371.48 594.42 365.26 589.73 C 359.31 585.23 353.14 580.81 346.29 577.79 C 343.54 576.18 340.23 579.61 341.63 582.34 C 343.69 584.73 346.65 586.07 349.32 587.67 C 358.55 592.86 367.47 599.60 372.47 609.18 C 365.28 612.90 357.08 613.63 349.16 614.43 C 337.84 615.12 326.44 613.60 315.53 610.57 C 305.04 607.99 294.07 606.08 284.78 600.23 C 279.23 597.10 275.05 592.23 270.24 588.17 C 266.86 590.22 262.99 591.35 259.01 591.01 C 248.35 590.61 237.83 592.62 227.24 593.38 C 217.70 592.83 207.81 593.80 198.69 590.33 C 193.95 588.89 189.46 586.54 186.12 582.82 C 192.44 586.33 199.06 589.60 206.25 590.85 C 212.19 591.93 218.26 591.37 224.26 591.67 C 231.50 592.00 238.66 590.66 245.83 589.85 C 252.10 589.04 258.50 589.65 264.71 588.26 C 258.38 585.19 251.49 583.30 245.55 579.44 C 230.17 570.47 218.05 555.26 214.67 537.60 C 213.63 527.10 213.02 516.54 213.14 505.99 C 213.15 496.65 212.83 487.27 214.03 477.97 C 215.28 464.97 218.62 452.31 221.78 439.67 C 226.58 420.55 232.99 401.83 240.85 383.75 C 243.47 377.32 244.00 370.33 245.80 363.67 C 248.02 354.82 251.92 346.53 255.12 338.02 C 259.80 325.79 264.93 313.70 271.21 302.20 C 272.64 299.84 273.57 296.68 276.34 295.56 C 279.68 294.17 283.22 293.25 286.38 291.44 C 297.05 285.39 307.57 278.38 319.80 275.92 C 328.20 274.22 336.51 272.11 344.80 269.95 C 355.00 267.28 365.60 268.47 376.00 268.21 C 391.02 267.74 406.00 269.68 420.72 272.47 C 422.93 272.81 425.18 272.73 427.41 272.64 C 423.60 267.15 418.86 262.34 415.44 256.58 C 409.65 246.75 403.12 236.59 402.43 224.88 C 403.14 214.22 410.06 205.45 416.23 197.23 C 420.84 190.89 427.15 186.15 432.89 180.91 C 440.00 174.51 448.06 169.31 456.04 164.08 C 463.52 159.34 471.15 154.73 479.35 151.33 C 482.82 149.93 486.02 147.90 488.64 145.22 L 489.25 144.65 C 512.36 146.26 535.19 150.68 557.53 156.73 C 546.37 166.21 534.64 175.02 523.40 184.42 C 522.29 185.40 521.53 186.69 520.77 187.95 C 526.22 186.70 529.83 182.09 534.39 179.19 C 535.35 181.68 536.14 185.21 539.44 185.34 C 545.00 185.59 549.74 181.98 554.33 179.33 C 565.38 172.02 576.61 164.99 587.60 157.61 C 603.05 147.58 619.93 139.80 637.58 134.55 C 648.95 131.15 660.86 130.26 672.67 130.43 C 672.61 129.58 672.55 128.72 672.50 127.87 M 602.72 184.73 C 591.70 193.68 580.87 204.11 576.04 217.81 C 578.79 221.45 583.63 220.70 587.62 221.43 C 597.07 222.60 605.68 227.14 613.25 232.70 C 614.94 234.30 617.07 233.48 618.82 232.46 C 620.29 232.74 621.87 232.90 623.13 233.83 C 627.39 236.83 631.18 240.55 634.09 244.89 C 636.66 248.64 637.99 253.35 641.81 256.13 C 642.58 253.79 643.08 251.34 644.25 249.16 C 646.63 246.26 649.87 244.15 652.00 241.00 C 655.63 235.77 659.04 230.33 661.50 224.44 C 664.69 216.87 668.19 209.26 669.13 201.01 C 670.22 195.54 669.02 189.92 670.13 184.46 C 668.49 178.43 664.83 172.88 659.59 169.41 C 654.45 166.05 648.01 165.10 642.00 166.00 C 627.33 167.95 614.31 175.97 602.72 184.73 M 367.35 270.23 C 355.96 270.67 344.21 274.83 336.43 283.40 C 331.97 288.05 337.67 296.38 343.60 294.63 C 347.59 292.83 350.57 289.35 354.61 287.58 C 362.51 283.48 371.77 283.69 380.36 284.82 C 386.38 285.68 391.72 288.76 397.49 290.42 C 403.85 291.72 409.15 281.61 402.98 278.03 C 392.29 271.86 379.58 269.74 367.35 270.23 M 347.14 318.10 C 340.01 319.39 336.43 326.02 331.85 330.84 C 327.11 336.04 322.75 341.81 320.60 348.61 C 316.71 360.31 312.79 372.04 310.01 384.07 C 308.70 389.29 308.98 394.70 308.94 400.04 C 308.93 405.08 306.68 409.88 307.11 414.95 C 307.74 423.50 309.93 431.85 310.53 440.41 C 311.08 450.94 312.49 461.44 311.97 472.00 C 312.23 477.11 310.80 482.81 313.82 487.36 C 322.04 483.04 330.00 477.90 339.08 475.52 C 339.37 475.95 339.93 476.82 340.22 477.25 C 338.62 478.39 336.98 479.48 335.20 480.32 C 327.92 483.65 321.04 487.84 314.64 492.65 C 313.27 493.52 312.46 494.95 312.06 496.50 C 313.98 496.61 316.00 497.53 317.88 496.88 C 315.99 497.83 313.88 498.11 311.86 498.64 C 313.10 500.53 314.60 502.34 316.76 503.21 C 321.03 505.21 325.73 503.25 329.90 501.93 C 344.23 496.88 358.45 491.31 373.39 488.29 C 394.04 483.33 415.36 482.68 436.27 479.28 C 439.35 478.66 442.59 478.04 445.23 476.23 C 446.35 475.42 447.59 473.83 446.57 472.47 C 444.33 468.61 440.17 466.36 436.09 464.91 C 438.59 465.88 440.85 464.26 442.76 462.84 C 442.69 462.26 442.57 461.11 442.51 460.53 C 441.88 460.43 440.62 460.23 439.98 460.13 C 438.79 459.35 437.61 458.59 436.42 457.83 C 443.85 446.36 442.96 432.04 443.05 418.96 C 443.31 415.90 441.99 413.12 440.52 410.55 C 438.77 407.68 439.17 404.21 438.82 401.02 C 437.02 386.90 435.10 372.71 430.94 359.05 C 430.47 357.33 429.40 355.90 428.30 354.56 C 423.07 339.99 415.25 325.82 403.21 315.78 C 395.93 309.59 386.59 305.69 377.00 305.44 C 365.83 305.44 355.32 310.78 347.14 318.10 M 579.54 450.41 C 586.37 470.09 586.22 491.15 588.33 511.64 C 588.87 535.65 581.28 558.88 572.92 581.08 C 572.01 584.14 569.43 587.14 570.60 590.46 C 575.05 586.97 579.10 582.92 582.32 578.26 C 590.25 566.23 594.92 552.41 598.76 538.62 C 603.89 519.98 605.15 500.45 603.81 481.22 C 602.62 468.79 600.98 455.77 593.92 445.12 C 591.72 441.45 587.59 438.43 583.16 438.92 C 578.74 440.70 577.89 446.39 579.54 450.41 M 359.41 539.43 C 355.70 540.09 351.17 539.50 348.31 542.37 C 347.79 544.69 349.55 547.27 351.99 547.29 C 357.02 547.24 361.97 546.03 367.00 545.79 C 401.58 543.77 436.38 554.59 464.69 574.31 C 465.93 575.03 467.24 575.98 468.76 575.78 C 471.16 575.65 472.04 572.16 470.71 570.44 C 469.01 568.36 466.64 567.01 464.44 565.54 C 433.74 545.32 396.06 535.41 359.41 539.43 M 662.40 676.39 C 658.56 681.23 661.90 687.52 661.21 693.03 C 660.18 708.28 652.54 722.03 644.99 734.97 C 642.42 739.73 638.36 743.73 637.01 749.11 C 639.63 748.24 642.26 747.15 644.30 745.24 C 640.47 750.69 635.34 754.97 630.77 759.77 C 625.95 764.68 620.34 768.72 614.87 772.88 C 609.15 777.16 603.11 781.40 596.01 783.02 C 587.71 784.87 579.66 788.47 571.00 788.09 C 562.36 787.69 553.36 789.23 545.09 785.98 C 541.56 784.55 536.65 784.24 535.47 779.90 C 536.05 777.25 536.28 774.55 536.08 771.85 C 537.25 773.36 537.65 775.28 538.37 777.03 C 542.15 776.34 546.45 775.03 548.36 771.38 C 549.71 766.35 548.22 760.94 549.87 755.93 C 551.40 749.73 558.49 745.45 556.73 738.46 C 554.77 738.15 552.81 737.74 550.83 737.77 C 552.64 737.07 555.17 737.03 556.08 735.01 C 555.93 732.87 553.59 733.30 552.08 733.30 C 540.36 734.79 528.59 742.79 525.78 754.76 C 523.92 762.53 526.40 770.47 530.59 777.04 C 527.75 783.90 526.29 791.71 529.26 798.81 C 534.04 810.97 546.40 817.71 558.18 821.63 C 558.94 822.87 559.63 824.23 560.73 825.26 C 569.23 832.25 579.99 836.37 590.97 836.94 C 599.02 837.29 607.23 837.35 615.03 835.03 C 626.14 832.40 635.86 825.81 644.14 818.16 C 649.54 811.25 656.48 805.77 661.95 798.93 C 669.37 789.00 675.27 777.86 678.97 766.02 C 680.46 759.94 681.07 753.69 682.50 747.60 C 684.35 739.52 683.99 731.21 684.03 722.99 C 684.23 715.60 681.43 708.58 678.85 701.79 C 678.78 700.27 678.65 698.76 678.55 697.26 C 676.69 697.03 674.83 696.86 672.98 696.79 C 675.07 691.89 675.49 686.41 674.73 681.18 C 674.14 677.14 671.39 673.97 668.77 671.05 C 666.34 672.42 663.91 673.98 662.40 676.39 Z" />
</g>
<g id="#2e3b5eff">
<path fill="#2e3b5e" opacity="1.00" d=" M 602.72 184.73 C 614.31 175.97 627.33 167.95 642.00 166.00 C 648.01 165.10 654.45 166.05 659.59 169.41 C 664.83 172.88 668.49 178.43 670.13 184.46 C 668.58 184.82 666.57 186.40 665.19 184.92 C 661.86 181.19 660.28 175.73 655.46 173.49 C 647.53 169.53 638.34 172.49 630.71 175.74 C 619.39 181.07 609.13 188.49 599.89 196.87 C 594.33 201.96 589.23 207.62 585.43 214.16 C 591.61 216.14 598.15 217.07 604.00 219.99 C 608.34 222.17 612.68 224.50 616.34 227.73 C 617.74 228.93 618.17 230.80 618.82 232.46 C 617.07 233.48 614.94 234.30 613.25 232.70 C 605.68 227.14 597.07 222.60 587.62 221.43 C 583.63 220.70 578.79 221.45 576.04 217.81 C 580.87 204.11 591.70 193.68 602.72 184.73 Z" />
<path fill="#2e3b5e" opacity="1.00" d=" M 341.63 582.34 C 340.23 579.61 343.54 576.18 346.29 577.79 C 353.14 580.81 359.31 585.23 365.26 589.73 C 371.48 594.42 376.10 600.78 380.20 607.30 C 380.63 609.67 380.99 613.34 377.81 613.87 C 374.84 614.55 373.84 611.06 372.47 609.18 C 367.47 599.60 358.55 592.86 349.32 587.67 C 346.65 586.07 343.69 584.73 341.63 582.34 Z" />
<path fill="#2e3b5e" opacity="1.00" d=" M 672.98 696.79 C 674.83 696.86 676.69 697.03 678.55 697.26 C 678.65 698.76 678.78 700.27 678.85 701.79 C 679.93 736.79 664.46 771.28 639.53 795.51 C 628.94 805.40 617.03 814.28 603.29 819.25 C 588.94 824.57 573.01 825.26 558.18 821.63 C 546.40 817.71 534.04 810.97 529.26 798.81 C 526.29 791.71 527.75 783.90 530.59 777.04 C 526.40 770.47 523.92 762.53 525.78 754.76 C 528.59 742.79 540.36 734.79 552.08 733.30 C 553.59 733.30 555.93 732.87 556.08 735.01 C 555.17 737.03 552.64 737.07 550.83 737.77 C 542.67 739.46 535.05 745.24 532.79 753.49 C 531.51 759.69 531.83 766.80 536.08 771.85 C 536.28 774.55 536.05 777.25 535.47 779.90 C 533.82 787.13 534.47 795.05 538.59 801.37 C 544.92 811.66 556.91 816.51 568.26 818.83 C 581.13 821.81 594.76 819.88 606.90 814.94 C 620.58 808.97 631.96 798.77 641.61 787.57 C 658.07 768.29 669.05 744.15 671.76 718.89 C 672.55 712.32 671.54 705.70 672.23 699.14 C 672.42 698.55 672.79 697.38 672.98 696.79 Z" />
</g>
<g id="#2f3c5fff">
<path fill="#2f3c5f" opacity="1.00" d=" M 367.35 270.23 C 379.58 269.74 392.29 271.86 402.98 278.03 C 409.15 281.61 403.85 291.72 397.49 290.42 C 391.72 288.76 386.38 285.68 380.36 284.82 C 371.77 283.69 362.51 283.48 354.61 287.58 C 350.57 289.35 347.59 292.83 343.60 294.63 C 337.67 296.38 331.97 288.05 336.43 283.40 C 344.21 274.83 355.96 270.67 367.35 270.23 Z" />
<path fill="#2f3c5f" opacity="1.00" d=" M 141.46 568.52 C 146.31 565.92 150.77 574.32 145.23 576.19 C 118.69 588.42 93.03 604.56 74.90 627.92 C 73.51 629.38 72.27 631.62 70.00 631.67 C 66.80 632.01 64.04 628.07 66.18 625.35 C 85.06 599.53 112.71 581.63 141.46 568.52 Z" />
<path fill="#2f3c5f" opacity="1.00" d=" M 148.60 582.72 C 151.44 581.26 155.33 583.63 154.79 586.94 C 155.08 589.19 152.60 590.04 151.10 591.11 C 138.28 598.01 127.15 607.67 117.39 618.40 C 115.69 620.17 114.11 622.17 111.91 623.34 C 108.42 624.30 104.66 619.32 107.47 616.56 C 119.23 603.21 132.50 590.64 148.60 582.72 Z" />
</g>
<g id="#2b385bff">
<path fill="#2b385b" opacity="1.00" d=" M 347.14 318.10 C 355.32 310.78 365.83 305.44 377.00 305.44 C 386.59 305.69 395.93 309.59 403.21 315.78 C 415.25 325.82 423.07 339.99 428.30 354.56 C 434.32 373.74 436.54 394.02 434.89 414.05 C 433.85 429.25 430.19 444.23 424.07 458.19 C 429.34 459.07 434.69 459.35 439.98 460.13 C 440.62 460.23 441.88 460.43 442.51 460.53 C 442.57 461.11 442.69 462.26 442.76 462.84 C 440.85 464.26 438.59 465.88 436.09 464.91 C 430.84 463.21 425.29 462.75 419.82 463.35 C 398.91 464.38 377.84 467.56 358.25 475.20 C 347.72 479.83 336.78 483.75 327.20 490.23 C 323.96 492.27 321.22 495.02 317.88 496.88 C 316.00 497.53 313.98 496.61 312.06 496.50 C 312.46 494.95 313.27 493.52 314.64 492.65 C 321.04 487.84 327.92 483.65 335.20 480.32 C 336.98 479.48 338.62 478.39 340.22 477.25 C 339.93 476.82 339.37 475.95 339.08 475.52 C 325.18 455.93 318.98 431.77 318.02 408.00 C 317.01 382.68 321.55 356.52 334.46 334.44 C 338.00 328.51 342.29 323.02 347.14 318.10 M 358.59 316.65 C 346.43 324.71 337.88 337.28 332.70 350.75 C 324.88 370.77 322.22 392.65 323.99 414.00 C 325.24 430.51 329.52 446.87 337.19 461.59 C 339.59 465.76 341.72 470.56 345.38 473.70 C 349.65 473.50 353.25 470.58 357.29 469.38 C 376.55 462.39 397.06 458.50 417.55 458.33 C 423.37 447.30 426.36 434.98 428.32 422.73 C 430.00 412.24 429.62 401.59 429.47 391.00 C 428.15 372.53 423.56 354.01 414.23 337.88 C 408.92 328.55 401.59 320.10 391.96 315.08 C 381.68 309.40 368.31 310.09 358.59 316.65 Z" />
</g>
<g id="#1e0f00ff">
<path fill="#1e0f00" opacity="1.00" d=" M 191.60 318.59 C 194.60 315.36 198.20 311.83 202.98 312.08 C 208.62 311.17 213.53 315.46 215.58 320.38 C 216.94 323.86 217.99 327.45 219.05 331.03 L 219.22 331.87 C 219.26 345.68 219.99 359.62 217.29 373.26 C 213.86 392.19 209.14 412.05 196.17 426.93 C 192.78 430.77 188.59 435.11 182.99 434.68 C 177.04 435.30 173.28 429.62 171.18 424.87 C 165.48 411.07 167.69 395.84 167.68 381.33 C 168.20 381.32 169.23 381.30 169.74 381.30 C 168.84 370.60 172.14 360.21 175.18 350.11 C 178.94 338.87 183.53 327.49 191.60 318.59 M 201.17 321.56 C 196.21 323.40 192.79 327.91 190.68 332.60 C 186.71 340.46 186.90 349.51 187.57 358.07 C 188.36 362.61 190.75 367.15 194.98 369.34 C 197.12 369.62 199.60 369.89 201.41 368.44 C 208.39 363.68 211.78 355.11 212.68 347.00 C 212.74 340.25 213.90 332.88 210.35 326.76 C 208.51 323.61 205.09 320.53 201.17 321.56 M 178.26 392.97 C 176.37 394.77 175.19 397.32 175.29 399.97 C 175.20 404.63 174.85 409.39 175.81 413.98 C 176.90 416.70 178.49 420.85 182.02 420.55 C 185.19 419.11 186.29 415.24 186.57 412.04 C 186.81 405.93 187.18 398.97 183.02 393.98 C 182.04 392.52 179.66 391.64 178.26 392.97 Z" />
<path fill="#1e0f00" opacity="1.00" d=" M 373.55 318.99 C 380.32 316.11 388.11 318.01 394.00 322.03 C 402.47 327.68 407.90 336.72 411.93 345.86 C 417.56 359.16 419.86 373.64 420.32 388.00 C 419.93 402.36 417.89 417.17 410.64 429.84 C 406.81 436.18 401.33 442.20 394.04 444.39 C 390.09 444.98 386.02 444.99 382.08 444.33 C 373.07 441.42 366.49 434.01 361.75 426.12 C 356.05 416.57 352.68 405.79 350.70 394.90 C 348.69 384.39 349.30 373.63 349.50 363.00 C 350.77 351.32 353.85 339.47 360.60 329.69 C 364.06 325.28 368.16 320.96 373.55 318.99 M 380.41 328.58 C 377.14 329.98 374.90 333.08 373.56 336.29 C 370.43 343.44 371.23 351.45 371.60 359.03 C 373.28 369.19 377.01 379.93 385.50 386.39 C 387.89 388.36 391.01 388.93 394.02 388.34 C 399.96 385.74 402.66 379.06 403.52 373.04 C 403.77 365.71 404.29 358.17 402.11 351.06 C 399.97 343.26 396.41 335.26 389.80 330.28 C 387.19 328.08 383.61 328.02 380.41 328.58 M 368.62 401.38 C 365.89 407.73 367.77 415.02 370.92 420.88 C 372.97 424.58 376.23 429.09 381.09 427.55 C 382.60 424.25 382.88 420.48 381.92 416.98 C 380.55 411.25 378.08 405.40 373.42 401.59 C 371.86 401.13 370.21 401.37 368.62 401.38 Z" />
</g>
<g id="#ffffffff">
<path fill="#ffffff" opacity="1.00" d=" M 358.59 316.65 C 368.31 310.09 381.68 309.40 391.96 315.08 C 401.59 320.10 408.92 328.55 414.23 337.88 C 423.56 354.01 428.15 372.53 429.47 391.00 C 429.62 401.59 430.00 412.24 428.32 422.73 C 426.36 434.98 423.37 447.30 417.55 458.33 C 397.06 458.50 376.55 462.39 357.29 469.38 C 353.25 470.58 349.65 473.50 345.38 473.70 C 341.72 470.56 339.59 465.76 337.19 461.59 C 329.52 446.87 325.24 430.51 323.99 414.00 C 322.22 392.65 324.88 370.77 332.70 350.75 C 337.88 337.28 346.43 324.71 358.59 316.65 M 373.55 318.99 C 368.16 320.96 364.06 325.28 360.60 329.69 C 353.85 339.47 350.77 351.32 349.50 363.00 C 349.30 373.63 348.69 384.39 350.70 394.90 C 352.68 405.79 356.05 416.57 361.75 426.12 C 366.49 434.01 373.07 441.42 382.08 444.33 C 386.02 444.99 390.09 444.98 394.04 444.39 C 401.33 442.20 406.81 436.18 410.64 429.84 C 417.89 417.17 419.93 402.36 420.32 388.00 C 419.86 373.64 417.56 359.16 411.93 345.86 C 407.90 336.72 402.47 327.68 394.00 322.03 C 388.11 318.01 380.32 316.11 373.55 318.99 Z" />
<path fill="#ffffff" opacity="1.00" d=" M 201.17 321.56 C 205.09 320.53 208.51 323.61 210.35 326.76 C 213.90 332.88 212.74 340.25 212.68 347.00 C 211.78 355.11 208.39 363.68 201.41 368.44 C 199.60 369.89 197.12 369.62 194.98 369.34 C 190.75 367.15 188.36 362.61 187.57 358.07 C 186.90 349.51 186.71 340.46 190.68 332.60 C 192.79 327.91 196.21 323.40 201.17 321.56 Z" />
<path fill="#ffffff" opacity="1.00" d=" M 380.41 328.58 C 383.61 328.02 387.19 328.08 389.80 330.28 C 396.41 335.26 399.97 343.26 402.11 351.06 C 404.29 358.17 403.77 365.71 403.52 373.04 C 402.66 379.06 399.96 385.74 394.02 388.34 C 391.01 388.93 387.89 388.36 385.50 386.39 C 377.01 379.93 373.28 369.19 371.60 359.03 C 371.23 351.45 370.43 343.44 373.56 336.29 C 374.90 333.08 377.14 329.98 380.41 328.58 Z" />
<path fill="#ffffff" opacity="1.00" d=" M 162.77 439.00 C 161.29 419.67 163.30 400.18 167.68 381.33 C 167.69 395.84 165.48 411.07 171.18 424.87 C 173.28 429.62 177.04 435.30 182.99 434.68 C 188.59 435.11 192.78 430.77 196.17 426.93 C 196.27 427.42 196.46 428.41 196.56 428.91 C 191.52 438.64 186.97 449.09 178.51 456.42 C 176.30 458.47 172.95 459.50 170.11 458.25 C 164.54 453.55 163.81 445.73 162.77 439.00 Z" />
<path fill="#ffffff" opacity="1.00" d=" M 178.26 392.97 C 179.66 391.64 182.04 392.52 183.02 393.98 C 187.18 398.97 186.81 405.93 186.57 412.04 C 186.29 415.24 185.19 419.11 182.02 420.55 C 178.49 420.85 176.90 416.70 175.81 413.98 C 174.85 409.39 175.20 404.63 175.29 399.97 C 175.19 397.32 176.37 394.77 178.26 392.97 Z" />
<path fill="#ffffff" opacity="1.00" d=" M 368.62 401.38 C 370.21 401.37 371.86 401.13 373.42 401.59 C 378.08 405.40 380.55 411.25 381.92 416.98 C 382.88 420.48 382.60 424.25 381.09 427.55 C 376.23 429.09 372.97 424.58 370.92 420.88 C 367.77 415.02 365.89 407.73 368.62 401.38 Z" />
</g>
<g id="#4969a6ff">
<path fill="#4969a6" opacity="1.00" d=" M 331.85 330.84 C 336.43 326.02 340.01 319.39 347.14 318.10 C 342.29 323.02 338.00 328.51 334.46 334.44 C 321.55 356.52 317.01 382.68 318.02 408.00 C 318.98 431.77 325.18 455.93 339.08 475.52 C 330.00 477.90 322.04 483.04 313.82 487.36 C 310.80 482.81 312.23 477.11 311.97 472.00 C 312.49 461.44 311.08 450.94 310.53 440.41 C 309.93 431.85 307.74 423.50 307.11 414.95 C 306.68 409.88 308.93 405.08 308.94 400.04 C 308.98 394.70 308.70 389.29 310.01 384.07 C 312.79 372.04 316.71 360.31 320.60 348.61 C 322.75 341.81 327.11 336.04 331.85 330.84 Z" />
<path fill="#4969a6" opacity="1.00" d=" M 154.64 453.00 C 154.80 447.15 154.18 441.14 155.99 435.48 C 158.65 442.74 157.88 451.04 162.24 457.73 C 164.17 462.09 168.73 463.91 172.90 465.45 C 170.55 470.82 167.28 475.74 165.26 481.27 C 162.56 487.43 161.10 494.02 158.68 500.28 C 157.87 499.00 157.22 497.60 157.18 496.06 C 155.77 481.75 154.41 467.40 154.64 453.00 Z" />
<path fill="#4969a6" opacity="1.00" d=" M 678.85 701.79 C 681.43 708.58 684.23 715.60 684.03 722.99 C 683.99 731.21 684.35 739.52 682.50 747.60 C 681.07 753.69 680.46 759.94 678.97 766.02 C 675.27 777.86 669.37 789.00 661.95 798.93 C 656.48 805.77 649.54 811.25 644.14 818.16 C 635.86 825.81 626.14 832.40 615.03 835.03 C 607.23 837.35 599.02 837.29 590.97 836.94 C 579.99 836.37 569.23 832.25 560.73 825.26 C 559.63 824.23 558.94 822.87 558.18 821.63 C 573.01 825.26 588.94 824.57 603.29 819.25 C 617.03 814.28 628.94 805.40 639.53 795.51 C 664.46 771.28 679.93 736.79 678.85 701.79 Z" />
<path fill="#4969a6" opacity="1.00" d=" M 771.41 779.87 C 774.51 782.24 776.11 785.88 777.78 789.29 C 789.13 813.37 778.73 845.77 754.72 857.77 C 749.84 860.25 744.49 861.81 739.01 861.94 C 741.00 856.00 744.60 850.83 747.15 845.15 C 754.43 830.12 760.61 814.56 765.63 798.63 C 767.75 792.44 769.10 786.00 771.41 779.87 Z" />
</g>
<g id="#4a69a6ff">
<path fill="#4a69a6" opacity="1.00" d=" M 428.30 354.56 C 429.40 355.90 430.47 357.33 430.94 359.05 C 435.10 372.71 437.02 386.90 438.82 401.02 C 439.17 404.21 438.77 407.68 440.52 410.55 C 441.99 413.12 443.31 415.90 443.05 418.96 C 442.96 432.04 443.85 446.36 436.42 457.83 C 437.61 458.59 438.79 459.35 439.98 460.13 C 434.69 459.35 429.34 459.07 424.07 458.19 C 430.19 444.23 433.85 429.25 434.89 414.05 C 436.54 394.02 434.32 373.74 428.30 354.56 Z" />
</g>
<g id="#2e3a5dff">
<path fill="#2e3a5d" opacity="1.00" d=" M 359.41 539.43 C 396.06 535.41 433.74 545.32 464.44 565.54 C 466.64 567.01 469.01 568.36 470.71 570.44 C 472.04 572.16 471.16 575.65 468.76 575.78 C 467.24 575.98 465.93 575.03 464.69 574.31 C 436.38 554.59 401.58 543.77 367.00 545.79 C 361.97 546.03 357.02 547.24 351.99 547.29 C 349.55 547.27 347.79 544.69 348.31 542.37 C 351.17 539.50 355.70 540.09 359.41 539.43 Z" />
</g>
<g id="#2f3c5ffe">
<path fill="#2f3c5f" opacity="1.00" d=" M 157.41 595.38 C 159.92 594.54 162.62 596.02 163.55 598.43 C 164.21 601.26 161.12 602.74 159.57 604.58 C 154.67 608.83 151.98 614.97 147.41 619.47 C 144.31 622.44 138.33 617.94 141.01 614.27 C 145.90 607.58 150.31 599.95 157.41 595.38 Z" />
</g>
<g id="#2f3c60ff">
<path fill="#2f3c60" opacity="1.00" d=" M 414.66 607.67 C 416.31 606.80 418.28 607.08 420.08 606.93 C 417.93 612.10 413.96 616.16 410.22 620.21 C 398.70 631.82 383.75 639.53 368.19 644.18 C 346.44 650.66 323.36 651.40 300.90 649.18 C 288.04 647.28 274.94 645.59 262.79 640.75 C 264.75 638.92 267.47 637.91 270.09 638.93 C 292.56 646.11 316.44 648.73 339.94 646.89 C 355.16 645.55 370.28 641.80 383.98 634.95 C 394.01 629.54 403.61 622.66 410.15 613.16 C 411.56 611.26 412.75 609.12 414.66 607.67 Z" />
</g>
<g id="#364973ff">
<path fill="#364973" opacity="1.00" d=" M 262.09 647.86 C 269.61 648.62 277.12 649.57 284.68 649.81 C 285.48 650.83 286.29 651.87 287.15 652.86 C 278.34 652.53 269.51 651.91 260.83 650.27 C 261.14 649.67 261.77 648.46 262.09 647.86 Z" />
</g>
<g id="#2e3b5dff">
<path fill="#2e3b5d" opacity="1.00" d=" M 307.93 738.94 C 314.26 734.11 323.12 733.94 330.37 736.65 C 333.11 737.50 334.49 740.17 336.00 742.39 C 342.00 742.09 348.14 741.30 354.03 742.97 C 371.26 747.29 384.54 761.35 391.85 777.06 C 394.82 785.93 396.06 796.03 391.67 804.68 C 385.86 817.04 372.51 823.35 360.09 827.09 C 357.32 828.21 354.95 826.07 352.75 824.73 C 353.20 823.82 353.65 822.92 354.11 822.03 C 365.96 820.44 376.84 813.44 384.04 804.02 C 390.85 795.17 391.19 782.71 386.45 772.84 C 379.63 757.99 364.97 745.33 347.97 745.54 C 339.12 745.49 332.03 751.31 325.86 756.95 C 324.14 755.87 322.43 754.77 320.73 753.67 C 322.94 749.34 327.34 747.03 331.14 744.33 C 325.98 740.96 318.99 740.54 313.61 743.62 C 309.84 745.98 307.31 749.75 304.47 753.07 C 302.92 751.84 299.61 750.87 300.53 748.33 C 301.76 744.44 304.81 741.42 307.93 738.94 Z" />
</g>
<g id="#3c5384ff">
<path fill="#3c5384" opacity="1.00" d=" M 328.45 821.06 C 336.97 821.90 345.54 822.55 354.11 822.03 C 353.65 822.92 353.20 823.82 352.75 824.73 C 342.73 824.86 332.48 825.63 322.79 822.46 C 324.66 821.95 326.53 821.38 328.45 821.06 Z" />
</g>
<g id="#3a517fff">
<path fill="#3a517f" opacity="1.00" d=" M 528.62 933.04 C 532.93 931.90 537.67 931.50 541.85 933.35 C 542.04 934.37 542.26 935.39 542.50 936.43 C 538.64 934.94 534.46 935.16 530.44 934.58 C 529.99 934.19 529.08 933.43 528.62 933.04 Z" />
</g>
</svg>
